<svg width="1194" height="864" viewBox="0 0 1194 864" fill="none" xmlns="http://www.w3.org/2000/svg">
<rect y="19" width="1227.07" height="717.196" fill="#444444"/>
<path d="M795.637 49.1047L456.859 352.349C426.588 379.445 423.444 425.411 449.845 454.906L651.848 680.578C678.249 710.073 724.281 712.021 754.552 684.925L1093.33 381.681C1123.6 354.585 1126.74 308.619 1100.34 279.124L898.442 53.5648C872.041 24.0703 825.908 22.0089 795.637 49.1047ZM1075.29 301.548C1089.66 317.595 1087.95 342.53 1071.48 357.272L732.703 660.516C716.234 675.258 691.263 674.201 676.9 658.154L474.998 432.595C460.635 416.548 462.34 391.613 478.809 376.872L817.587 73.627C834.056 58.8852 859.026 59.9421 873.39 75.9889L1075.29 301.548Z" fill="#7F7F7F" fill-opacity="0.1"/>
<path d="M831.028 311.76L854.967 117.721C856.024 108.633 849.61 100.534 840.419 99.6009C831.329 98.7812 823.037 105.389 821.864 114.581L788.975 382.173L736.555 382.889C736.338 382.88 736.12 382.871 736.12 382.871C734.818 382.816 733.833 382.883 732.515 383.045L518.808 385.85C509.543 386.002 502.061 393.513 501.974 402.751C501.886 411.989 509.229 419.258 518.494 419.106L715.973 416.375L695.672 616.112C694.832 625.21 701.363 633.206 710.569 633.921C715.346 634.124 719.807 632.573 723.17 629.562C726.186 626.863 728.306 622.93 728.819 618.603L749.429 415.943L803.485 415.187C807.742 415.041 811.552 413.462 814.567 410.763C817.583 408.064 819.586 404.235 820.085 400.124L826.921 344.747L1030.95 348.164C1035.41 348.244 1039.55 346.571 1042.56 343.871C1045.93 340.861 1048.06 336.711 1048.17 331.932C1048.58 322.816 1041.37 315.226 1032.23 315.057L831.028 311.76Z" fill="#7F7F7F" fill-opacity="0.1"/>
</svg>
